<?xml version="1.0" encoding="UTF-8" standalone="no"?>
<svg
   xmlns:dc="http://purl.org/dc/elements/1.1/"
   xmlns:cc="http://creativecommons.org/ns#"
   xmlns:rdf="http://www.w3.org/1999/02/22-rdf-syntax-ns#"
   xmlns:svg="http://www.w3.org/2000/svg"
   xmlns="http://www.w3.org/2000/svg"
   xmlns:sodipodi="http://sodipodi.sourceforge.net/DTD/sodipodi-0.dtd"
   xmlns:inkscape="http://www.inkscape.org/namespaces/inkscape"
   inkscape:version="1.0 (4035a4f, 2020-05-01)"
   sodipodi:docname="wave.svg"
   id="svg910"
   version="1.1"
   viewBox="0 0 1440 320">
  <metadata
     id="metadata916">
    <rdf:RDF>
      <cc:Work
         rdf:about="">
        <dc:format>image/svg+xml</dc:format>
        <dc:type
           rdf:resource="http://purl.org/dc/dcmitype/StillImage" />
      </cc:Work>
    </rdf:RDF>
  </metadata>
  <defs
     id="defs914" />
  <sodipodi:namedview
     inkscape:current-layer="svg910"
     inkscape:window-maximized="1"
     inkscape:window-y="23"
     inkscape:window-x="0"
     inkscape:cy="196.48936"
     inkscape:cx="713.19922"
     inkscape:zoom="0.46534037"
     showgrid="false"
     id="namedview912"
     inkscape:window-height="855"
     inkscape:window-width="1440"
     inkscape:pageshadow="2"
     inkscape:pageopacity="0"
     guidetolerance="10"
     gridtolerance="10"
     objecttolerance="10"
     borderopacity="1"
     bordercolor="#666666"
     pagecolor="#ffffff" />
  <g
     id="g1059">
    <path
       fill="#f4f8ff"
       fill-opacity="1"
       d="m 0,279.21063 60,-10.7 c 60,-10.3 180,-32.3 300,-58.6 120,-26.7 240,-58.7 360,-74.7 120,-16 240,-16 360,5.3 120,21.7 240,63.7 300,85.4 l 60,21.3 v 64 h -60 c -60,0 -180,0 -300,0 -120,0 -240,0 -360,0 -120,0 -240,0 -360,0 -120,0 -240,0 -300,0 H 0 Z"
       id="path908"
       style="fill:#9b51e0;fill-opacity:0.66666669" />
    <path
       id="path908-0"
       d="m 0,297.21063 60,-10.7 c 60,-10.3 180,-32.3 300,-58.6 120,-26.7 240,-58.7 360,-74.7 119.99999,-16 239.99999,-16 360,5.3 120,21.7 240,63.7 300,85.4 l 60,21.3 v 64 h -60 c -60,0 -180,0 -300,0 -120.00001,0 -240.00001,0 -360,0 -120,0 -240,0 -360,0 -120,0 -240,0 -300,0 H 0 Z"
       fill-opacity="1"
       fill="#f4f8ff" />
  </g>
</svg>
